<?xml version="1.0" encoding="UTF-8" standalone="no"?>
<!DOCTYPE svg PUBLIC "-//W3C//DTD SVG 1.1//EN" "http://www.w3.org/Graphics/SVG/1.1/DTD/svg11.dtd">
<svg xmlns="http://www.w3.org/2000/svg" version="1.1" viewBox="0.00 0.00 1412.00 215.00">
<g stroke-width="2.00" fill="none" stroke-linecap="butt">
<path stroke="#808080" vector-effect="non-scaling-stroke" d="
  M 230.3295 31.7436
  A 20.97 20.29 -0.4 0 0 209.2184 11.6005
  A 20.97 20.29 -0.4 0 0 188.3905 32.0364
  A 20.97 20.29 -0.4 0 0 209.5016 52.1795
  A 20.97 20.29 -0.4 0 0 230.3295 31.7436"
/>
<path stroke="#fcafcf" vector-effect="non-scaling-stroke" d="
  M 1097.97 183.89
  A 1.61 1.61 0.0 0 1 1100.94 184.75
  L 1100.96 201.03
  A 0.58 0.57 90.0 0 0 1101.53 201.61
  L 1133.99 201.61
  A 0.86 0.85 -0.0 0 0 1134.85 200.76
  L 1134.84 14.45
  Q 1134.84 13.31 1133.70 13.31
  L 1102.19 13.32
  A 1.24 1.24 0.0 0 0 1100.95 14.56
  L 1100.95 82.00
  A 1.71 1.70 28.0 0 1 1097.83 82.95
  C 1085.23 64.30 1059.24 62.36 1039.46 69.68
  C 1006.01 82.07 1001.50 126.05 1006.86 156.00
  C 1011.50 181.99 1028.70 201.84 1056.26 203.17
  C 1073.08 203.99 1088.90 198.24 1097.97 183.89"
/>
<path stroke="#808080" vector-effect="non-scaling-stroke" d="
  M 90.07 156.63
  C 88.41 157.26 87.47 156.41 86.97 154.86
  Q 65.73 89.07 44.64 23.70
  A 1.47 1.46 -8.6 0 0 43.24 22.67
  L 8.01 22.67
  A 0.84 0.84 0.0 0 0 7.21 23.78
  L 66.93 201.03
  A 0.86 0.86 0.0 0 0 67.74 201.61
  L 108.53 201.59
  A 1.61 1.60 -80.6 0 0 110.05 200.50
  L 169.36 24.14
  Q 169.86 22.66 168.30 22.66
  L 134.02 22.68
  A 0.93 0.92 -80.9 0 0 133.14 23.32
  L 91.09 155.55
  A 1.71 1.69 88.6 0 1 90.07 156.63"
/>
<path stroke="#808080" vector-effect="non-scaling-stroke" d="
  M 450.19 94.67
  Q 450.19 93.60 451.26 93.60
  L 486.90 93.62
  A 1.47 1.47 0.0 0 0 488.37 92.15
  L 488.37 68.86
  A 1.53 1.53 0.0 0 0 486.84 67.33
  L 451.26 67.35
  Q 450.25 67.35 450.25 66.33
  L 450.26 37.60
  A 1.69 1.68 -4.5 0 0 448.31 35.94
  L 417.47 40.90
  A 1.15 1.14 85.3 0 0 416.52 42.03
  L 416.54 66.50
  A 0.85 0.85 0.0 0 1 415.69 67.35
  L 397.08 67.32
  A 1.46 1.46 0.0 0 0 395.62 68.78
  L 395.62 92.08
  A 1.56 1.56 0.0 0 0 397.18 93.64
  L 415.49 93.59
  Q 416.54 93.59 416.54 94.64
  Q 416.50 126.92 416.54 159.30
  C 416.57 179.31 425.55 196.57 446.25 201.51
  C 460.03 204.80 481.35 203.82 493.09 193.90
  A 0.74 0.72 60.5 0 0 493.30 193.10
  L 485.18 170.22
  A 2.00 2.00 0.0 0 0 482.43 169.08
  Q 480.53 169.99 478.19 171.11
  Q 472.63 173.80 466.68 173.84
  C 455.77 173.93 450.17 167.16 450.22 156.50
  Q 450.38 125.32 450.19 94.67"
/>
<path stroke="#808080" vector-effect="non-scaling-stroke" d="
  M 292.32 142.63
  A 1.17 1.17 0.0 0 1 293.49 141.44
  L 378.00 141.44
  A 3.32 3.31 -88.6 0 0 381.31 138.28
  C 381.77 128.24 382.06 116.69 380.38 107.50
  Q 375.47 80.76 351.15 70.72
  C 337.43 65.06 319.40 64.38 304.98 67.78
  C 279.26 73.84 263.67 92.46 259.03 117.72
  Q 254.92 140.11 261.36 161.46
  C 271.49 195.01 304.90 206.42 336.76 202.60
  Q 366.11 199.08 380.30 172.65
  A 1.32 1.31 30.6 0 0 379.85 170.93
  Q 369.63 164.35 358.60 157.73
  Q 356.26 156.33 355.30 158.01
  C 349.45 168.29 342.10 173.12 330.30 174.14
  C 315.89 175.40 302.52 171.85 295.88 157.78
  Q 292.48 150.59 292.32 142.63"
/>
<path stroke="#fcafcf" vector-effect="non-scaling-stroke" d="
  M 802.64 200.31
  C 811.54 202.68 823.51 202.19 831.90 197.93
  Q 832.52 197.62 832.45 196.92
  L 830.24 174.47
  A 1.68 1.67 -11.0 0 0 828.10 173.03
  C 824.93 173.95 820.64 174.44 817.79 172.67
  Q 814.49 170.62 814.49 166.49
  Q 814.52 137.15 814.45 107.81
  C 814.41 90.70 806.91 75.11 790.16 69.58
  Q 769.80 62.85 746.53 67.66
  Q 723.72 72.37 707.60 89.14
  A 1.93 1.93 0.0 0 0 707.40 91.58
  L 719.99 109.79
  A 2.66 2.65 49.7 0 0 724.08 110.13
  C 735.53 98.32 752.85 91.41 769.47 94.21
  C 777.47 95.56 782.29 99.47 781.46 108.01
  Q 780.78 115.01 774.28 117.68
  C 766.44 120.92 757.78 122.26 748.26 123.79
  C 733.94 126.08 714.68 132.03 707.26 146.22
  C 703.50 153.41 703.28 161.12 704.16 169.72
  Q 705.80 185.69 717.07 194.55
  C 731.02 205.50 757.86 206.49 772.24 195.67
  Q 778.25 191.15 781.98 184.26
  Q 783.04 182.31 784.93 183.49
  A 2.42 2.38 -82.6 0 1 785.96 184.85
  C 788.36 193.11 794.23 198.07 802.64 200.31"
/>
<path stroke="#fcafcf" vector-effect="non-scaling-stroke" d="
  M 888.05 88.29
  A 1.24 1.24 0.0 0 1 887.44 87.22
  L 887.48 69.05
  A 1.73 1.72 0.2 0 0 885.75 67.32
  L 855.83 67.33
  A 1.34 1.34 0.0 0 0 854.50 68.67
  L 854.50 200.19
  A 1.44 1.44 0.0 0 0 855.94 201.63
  L 887.02 201.59
  A 1.50 1.50 0.0 0 0 888.52 200.09
  Q 888.45 167.03 888.55 134.71
  C 888.58 124.22 889.20 115.58 893.78 107.55
  C 900.41 95.96 915.02 92.79 927.40 95.39
  C 933.77 96.73 937.83 100.82 940.10 106.97
  Q 941.74 111.42 941.74 115.00
  Q 941.76 158.12 941.75 200.98
  A 0.65 0.64 -0.0 0 0 942.40 201.62
  L 974.51 201.59
  Q 975.64 201.59 975.64 200.47
  Q 975.75 156.73 975.65 113.75
  C 975.61 100.48 972.24 85.32 962.59 76.26
  C 950.53 64.95 930.09 63.91 915.00 67.84
  Q 899.23 71.94 890.32 87.40
  Q 889.36 89.07 888.05 88.29"
/>
<path stroke="#fcafcf" vector-effect="non-scaling-stroke" d="
  M 1246.62 67.13
  C 1227.59 64.10 1207.65 66.20 1191.99 77.45
  Q 1173.89 90.45 1168.73 113.57
  Q 1163.92 135.07 1168.54 155.70
  Q 1174.84 183.88 1199.16 195.88
  C 1218.17 205.26 1249.19 206.59 1267.76 195.37
  Q 1280.72 187.54 1289.00 172.93
  A 1.50 1.50 0.0 0 0 1288.51 170.92
  Q 1278.45 164.45 1267.61 157.66
  Q 1266.23 156.80 1264.67 157.42
  A 1.30 1.30 0.0 0 0 1264.01 158.02
  C 1258.77 168.34 1250.05 173.24 1238.55 174.21
  C 1216.38 176.08 1203.00 165.34 1200.87 143.00
  A 1.43 1.42 -2.7 0 1 1202.29 141.44
  L 1286.77 141.44
  A 3.30 3.29 -88.7 0 0 1290.06 138.29
  C 1290.91 118.99 1291.51 97.56 1276.84 82.24
  Q 1265.18 70.08 1246.62 67.13"
/>
<path stroke="#808080" vector-effect="non-scaling-stroke" d="
  M 226.35 68.91
  A 1.58 1.58 0.0 0 0 224.77 67.33
  L 193.83 67.33
  A 1.58 1.58 0.0 0 0 192.25 68.91
  L 192.25 200.03
  A 1.58 1.58 0.0 0 0 193.83 201.61
  L 224.77 201.61
  A 1.58 1.58 0.0 0 0 226.35 200.03
  L 226.35 68.91"
/>
<path stroke="#fcafcf" vector-effect="non-scaling-stroke" d="
  M 596.25 111.76
  L 621.19 200.79
  A 1.13 1.13 0.0 0 0 622.28 201.62
  L 656.07 201.61
  A 1.09 1.03 6.4 0 0 657.12 200.82
  L 688.21 68.81
  Q 688.56 67.32 687.03 67.32
  L 659.26 67.32
  A 1.50 1.49 -84.0 0 0 657.80 68.51
  L 639.27 157.14
  A 1.59 1.59 0.0 0 1 636.41 157.72
  Q 636.03 157.18 635.70 156.00
  Q 623.00 112.14 610.41 68.90
  A 2.18 2.18 0.0 0 0 608.32 67.33
  L 582.15 67.32
  A 1.95 1.94 -82.1 0 0 580.28 68.74
  L 555.33 157.35
  A 1.59 1.59 0.0 0 1 552.25 157.25
  L 533.03 68.84
  A 1.92 1.91 83.8 0 0 531.16 67.33
  L 503.27 67.32
  Q 501.33 67.32 501.78 69.21
  L 533.03 200.47
  A 1.51 1.50 83.1 0 0 534.49 201.62
  L 567.54 201.60
  Q 568.71 201.59 569.01 200.47
  L 593.04 111.77
  A 1.67 1.66 44.8 0 1 596.25 111.76"
/>
<path stroke="#fcafcf" vector-effect="non-scaling-stroke" d="
  M 1353.88 88.28
  A 1.15 1.15 0.0 0 1 1352.74 87.13
  L 1352.75 69.20
  Q 1352.75 67.33 1350.87 67.33
  L 1321.21 67.32
  A 1.48 1.47 0.0 0 0 1319.73 68.79
  L 1319.73 200.20
  A 1.42 1.41 90.0 0 0 1321.14 201.62
  L 1352.52 201.61
  A 1.39 1.38 -0.0 0 0 1353.91 200.23
  Q 1353.99 168.61 1353.84 136.50
  Q 1353.78 122.61 1358.28 112.74
  C 1364.72 98.64 1381.58 95.38 1395.39 100.29
  C 1397.06 100.88 1399.03 101.14 1399.45 99.01
  Q 1402.15 85.15 1404.59 71.68
  A 1.88 1.88 0.0 0 0 1403.31 69.55
  C 1384.70 63.66 1363.99 68.14 1355.94 87.77
  A 0.82 0.82 0.0 0 1 1355.18 88.28
  L 1353.88 88.28"
/>
<path stroke="#fcafcf" vector-effect="non-scaling-stroke" d="
  M 1094.79 106.76
  C 1087.25 95.58 1074.05 92.73 1061.56 95.66
  C 1042.90 100.04 1039.88 118.64 1040.06 134.58
  Q 1040.18 145.16 1041.11 149.87
  C 1043.51 162.03 1050.63 171.64 1063.44 173.81
  C 1082.34 177.03 1095.75 167.74 1099.70 149.86
  C 1102.52 137.15 1102.39 118.02 1094.79 106.76"
/>
<path stroke="#808080" vector-effect="non-scaling-stroke" d="
  M 309.97 94.47
  C 299.87 98.37 294.31 108.54 293.08 118.81
  A 0.92 0.92 0.0 0 0 293.99 119.84
  L 348.49 119.84
  A 0.79 0.79 0.0 0 0 349.28 119.07
  C 349.46 112.21 347.55 104.36 342.90 99.31
  C 335.00 90.70 320.18 90.52 309.97 94.47"
/>
<path stroke="#fcafcf" vector-effect="non-scaling-stroke" d="
  M 779.99 135.30
  C 771.92 140.41 762.11 141.63 752.74 143.50
  Q 735.26 146.98 737.57 164.73
  C 739.43 179.06 756.42 180.77 767.23 176.41
  C 781.33 170.72 783.35 153.91 782.46 140.07
  C 782.35 138.39 783.17 136.34 780.95 135.25
  A 1.00 0.99 -47.6 0 0 779.99 135.30"
/>
<path stroke="#fcafcf" vector-effect="non-scaling-stroke" d="
  M 1204.49 108.61
  Q 1202.44 113.48 1201.80 118.62
  Q 1201.65 119.83 1202.86 119.83
  L 1256.78 119.84
  A 1.23 1.22 89.5 0 0 1258.00 118.59
  C 1257.81 108.30 1254.28 97.89 1243.75 94.04
  C 1229.17 88.70 1211.01 93.13 1204.49 108.61"
/>
</g>
<path fill="#ffffff" d="
  M 0.00 0.00
  L 1412.00 0.00
  L 1412.00 215.00
  L 0.00 215.00
  L 0.00 0.00
  Z
  M 230.3295 31.7436
  A 20.97 20.29 -0.4 0 0 209.2184 11.6005
  A 20.97 20.29 -0.4 0 0 188.3905 32.0364
  A 20.97 20.29 -0.4 0 0 209.5016 52.1795
  A 20.97 20.29 -0.4 0 0 230.3295 31.7436
  Z
  M 1097.97 183.89
  A 1.61 1.61 0.0 0 1 1100.94 184.75
  L 1100.96 201.03
  A 0.58 0.57 90.0 0 0 1101.53 201.61
  L 1133.99 201.61
  A 0.86 0.85 -0.0 0 0 1134.85 200.76
  L 1134.84 14.45
  Q 1134.84 13.31 1133.70 13.31
  L 1102.19 13.32
  A 1.24 1.24 0.0 0 0 1100.95 14.56
  L 1100.95 82.00
  A 1.71 1.70 28.0 0 1 1097.83 82.95
  C 1085.23 64.30 1059.24 62.36 1039.46 69.68
  C 1006.01 82.07 1001.50 126.05 1006.86 156.00
  C 1011.50 181.99 1028.70 201.84 1056.26 203.17
  C 1073.08 203.99 1088.90 198.24 1097.97 183.89
  Z
  M 90.07 156.63
  C 88.41 157.26 87.47 156.41 86.97 154.86
  Q 65.73 89.07 44.64 23.70
  A 1.47 1.46 -8.6 0 0 43.24 22.67
  L 8.01 22.67
  A 0.84 0.84 0.0 0 0 7.21 23.78
  L 66.93 201.03
  A 0.86 0.86 0.0 0 0 67.74 201.61
  L 108.53 201.59
  A 1.61 1.60 -80.6 0 0 110.05 200.50
  L 169.36 24.14
  Q 169.86 22.66 168.30 22.66
  L 134.02 22.68
  A 0.93 0.92 -80.9 0 0 133.14 23.32
  L 91.09 155.55
  A 1.71 1.69 88.6 0 1 90.07 156.63
  Z
  M 450.19 94.67
  Q 450.19 93.60 451.26 93.60
  L 486.90 93.62
  A 1.47 1.47 0.0 0 0 488.37 92.15
  L 488.37 68.86
  A 1.53 1.53 0.0 0 0 486.84 67.33
  L 451.26 67.35
  Q 450.25 67.35 450.25 66.33
  L 450.26 37.60
  A 1.69 1.68 -4.5 0 0 448.31 35.94
  L 417.47 40.90
  A 1.15 1.14 85.3 0 0 416.52 42.03
  L 416.54 66.50
  A 0.85 0.85 0.0 0 1 415.69 67.35
  L 397.08 67.32
  A 1.46 1.46 0.0 0 0 395.62 68.78
  L 395.62 92.08
  A 1.56 1.56 0.0 0 0 397.18 93.64
  L 415.49 93.59
  Q 416.54 93.59 416.54 94.64
  Q 416.50 126.92 416.54 159.30
  C 416.57 179.31 425.55 196.57 446.25 201.51
  C 460.03 204.80 481.35 203.82 493.09 193.90
  A 0.74 0.72 60.5 0 0 493.30 193.10
  L 485.18 170.22
  A 2.00 2.00 0.0 0 0 482.43 169.08
  Q 480.53 169.99 478.19 171.11
  Q 472.63 173.80 466.68 173.84
  C 455.77 173.93 450.17 167.16 450.22 156.50
  Q 450.38 125.32 450.19 94.67
  Z
  M 292.32 142.63
  A 1.17 1.17 0.0 0 1 293.49 141.44
  L 378.00 141.44
  A 3.32 3.31 -88.6 0 0 381.31 138.28
  C 381.77 128.24 382.06 116.69 380.38 107.50
  Q 375.47 80.76 351.15 70.72
  C 337.43 65.06 319.40 64.38 304.98 67.78
  C 279.26 73.84 263.67 92.46 259.03 117.72
  Q 254.92 140.11 261.36 161.46
  C 271.49 195.01 304.90 206.42 336.76 202.60
  Q 366.11 199.08 380.30 172.65
  A 1.32 1.31 30.6 0 0 379.85 170.93
  Q 369.63 164.35 358.60 157.73
  Q 356.26 156.33 355.30 158.01
  C 349.45 168.29 342.10 173.12 330.30 174.14
  C 315.89 175.40 302.52 171.85 295.88 157.78
  Q 292.48 150.59 292.32 142.63
  Z
  M 802.64 200.31
  C 811.54 202.68 823.51 202.19 831.90 197.93
  Q 832.52 197.62 832.45 196.92
  L 830.24 174.47
  A 1.68 1.67 -11.0 0 0 828.10 173.03
  C 824.93 173.95 820.64 174.44 817.79 172.67
  Q 814.49 170.62 814.49 166.49
  Q 814.52 137.15 814.45 107.81
  C 814.41 90.70 806.91 75.11 790.16 69.58
  Q 769.80 62.85 746.53 67.66
  Q 723.72 72.37 707.60 89.14
  A 1.93 1.93 0.0 0 0 707.40 91.58
  L 719.99 109.79
  A 2.66 2.65 49.7 0 0 724.08 110.13
  C 735.53 98.32 752.85 91.41 769.47 94.21
  C 777.47 95.56 782.29 99.47 781.46 108.01
  Q 780.78 115.01 774.28 117.68
  C 766.44 120.92 757.78 122.26 748.26 123.79
  C 733.94 126.08 714.68 132.03 707.26 146.22
  C 703.50 153.41 703.28 161.12 704.16 169.72
  Q 705.80 185.69 717.07 194.55
  C 731.02 205.50 757.86 206.49 772.24 195.67
  Q 778.25 191.15 781.98 184.26
  Q 783.04 182.31 784.93 183.49
  A 2.42 2.38 -82.6 0 1 785.96 184.85
  C 788.36 193.11 794.23 198.07 802.64 200.31
  Z
  M 888.05 88.29
  A 1.24 1.24 0.0 0 1 887.44 87.22
  L 887.48 69.05
  A 1.73 1.72 0.2 0 0 885.75 67.32
  L 855.83 67.33
  A 1.34 1.34 0.0 0 0 854.50 68.67
  L 854.50 200.19
  A 1.44 1.44 0.0 0 0 855.94 201.63
  L 887.02 201.59
  A 1.50 1.50 0.0 0 0 888.52 200.09
  Q 888.45 167.03 888.55 134.71
  C 888.58 124.22 889.20 115.58 893.78 107.55
  C 900.41 95.96 915.02 92.79 927.40 95.39
  C 933.77 96.73 937.83 100.82 940.10 106.97
  Q 941.74 111.42 941.74 115.00
  Q 941.76 158.12 941.75 200.98
  A 0.65 0.64 -0.0 0 0 942.40 201.62
  L 974.51 201.59
  Q 975.64 201.59 975.64 200.47
  Q 975.75 156.73 975.65 113.75
  C 975.61 100.48 972.24 85.32 962.59 76.26
  C 950.53 64.95 930.09 63.91 915.00 67.84
  Q 899.23 71.94 890.32 87.40
  Q 889.36 89.07 888.05 88.29
  Z
  M 1246.62 67.13
  C 1227.59 64.10 1207.65 66.20 1191.99 77.45
  Q 1173.89 90.45 1168.73 113.57
  Q 1163.92 135.07 1168.54 155.70
  Q 1174.84 183.88 1199.16 195.88
  C 1218.17 205.26 1249.19 206.59 1267.76 195.37
  Q 1280.72 187.54 1289.00 172.93
  A 1.50 1.50 0.0 0 0 1288.51 170.92
  Q 1278.45 164.45 1267.61 157.66
  Q 1266.23 156.80 1264.67 157.42
  A 1.30 1.30 0.0 0 0 1264.01 158.02
  C 1258.77 168.34 1250.05 173.24 1238.55 174.21
  C 1216.38 176.08 1203.00 165.34 1200.87 143.00
  A 1.43 1.42 -2.7 0 1 1202.29 141.44
  L 1286.77 141.44
  A 3.30 3.29 -88.7 0 0 1290.06 138.29
  C 1290.91 118.99 1291.51 97.56 1276.84 82.24
  Q 1265.18 70.08 1246.62 67.13
  Z
  M 226.35 68.91
  A 1.58 1.58 0.0 0 0 224.77 67.33
  L 193.83 67.33
  A 1.58 1.58 0.0 0 0 192.25 68.91
  L 192.25 200.03
  A 1.58 1.58 0.0 0 0 193.83 201.61
  L 224.77 201.61
  A 1.58 1.58 0.0 0 0 226.35 200.03
  L 226.35 68.91
  Z
  M 596.25 111.76
  L 621.19 200.79
  A 1.13 1.13 0.0 0 0 622.28 201.62
  L 656.07 201.61
  A 1.09 1.03 6.4 0 0 657.12 200.82
  L 688.21 68.81
  Q 688.56 67.32 687.03 67.32
  L 659.26 67.32
  A 1.50 1.49 -84.0 0 0 657.80 68.51
  L 639.27 157.14
  A 1.59 1.59 0.0 0 1 636.41 157.72
  Q 636.03 157.18 635.70 156.00
  Q 623.00 112.14 610.41 68.90
  A 2.18 2.18 0.0 0 0 608.32 67.33
  L 582.15 67.32
  A 1.95 1.94 -82.1 0 0 580.28 68.74
  L 555.33 157.35
  A 1.59 1.59 0.0 0 1 552.25 157.25
  L 533.03 68.84
  A 1.92 1.91 83.8 0 0 531.16 67.33
  L 503.27 67.32
  Q 501.33 67.32 501.78 69.21
  L 533.03 200.47
  A 1.51 1.50 83.1 0 0 534.49 201.62
  L 567.54 201.60
  Q 568.71 201.59 569.01 200.47
  L 593.04 111.77
  A 1.67 1.66 44.8 0 1 596.25 111.76
  Z
  M 1353.88 88.28
  A 1.15 1.15 0.0 0 1 1352.74 87.13
  L 1352.75 69.20
  Q 1352.75 67.33 1350.87 67.33
  L 1321.21 67.32
  A 1.48 1.47 0.0 0 0 1319.73 68.79
  L 1319.73 200.20
  A 1.42 1.41 90.0 0 0 1321.14 201.62
  L 1352.52 201.61
  A 1.39 1.38 -0.0 0 0 1353.91 200.23
  Q 1353.99 168.61 1353.84 136.50
  Q 1353.78 122.61 1358.28 112.74
  C 1364.72 98.64 1381.58 95.38 1395.39 100.29
  C 1397.06 100.88 1399.03 101.14 1399.45 99.01
  Q 1402.15 85.15 1404.59 71.68
  A 1.88 1.88 0.0 0 0 1403.31 69.55
  C 1384.70 63.66 1363.99 68.14 1355.94 87.77
  A 0.82 0.82 0.0 0 1 1355.18 88.28
  L 1353.88 88.28
  Z"
/>
<ellipse fill="#000000" cx="0.00" cy="0.00" transform="translate(209.36,31.89) rotate(-0.4)" rx="20.97" ry="20.29"/>
<path fill="#f85e9f" d="
  M 1097.97 183.89
  C 1088.90 198.24 1073.08 203.99 1056.26 203.17
  C 1028.70 201.84 1011.50 181.99 1006.86 156.00
  C 1001.50 126.05 1006.01 82.07 1039.46 69.68
  C 1059.24 62.36 1085.23 64.30 1097.83 82.95
  A 1.71 1.70 28.0 0 0 1100.95 82.00
  L 1100.95 14.56
  A 1.24 1.24 0.0 0 1 1102.19 13.32
  L 1133.70 13.31
  Q 1134.84 13.31 1134.84 14.45
  L 1134.85 200.76
  A 0.86 0.85 -0.0 0 1 1133.99 201.61
  L 1101.53 201.61
  A 0.58 0.57 -90.0 0 1 1100.96 201.03
  L 1100.94 184.75
  A 1.61 1.61 0.0 0 0 1097.97 183.89
  Z
  M 1094.79 106.76
  C 1087.25 95.58 1074.05 92.73 1061.56 95.66
  C 1042.90 100.04 1039.88 118.64 1040.06 134.58
  Q 1040.18 145.16 1041.11 149.87
  C 1043.51 162.03 1050.63 171.64 1063.44 173.81
  C 1082.34 177.03 1095.75 167.74 1099.70 149.86
  C 1102.52 137.15 1102.39 118.02 1094.79 106.76
  Z"
/>
<path fill="#000000" d="
  M 90.07 156.63
  A 1.71 1.69 88.6 0 0 91.09 155.55
  L 133.14 23.32
  A 0.93 0.92 -80.9 0 1 134.02 22.68
  L 168.30 22.66
  Q 169.86 22.66 169.36 24.14
  L 110.05 200.50
  A 1.61 1.60 -80.6 0 1 108.53 201.59
  L 67.74 201.61
  A 0.86 0.86 0.0 0 1 66.93 201.03
  L 7.21 23.78
  A 0.84 0.84 0.0 0 1 8.01 22.67
  L 43.24 22.67
  A 1.47 1.46 -8.6 0 1 44.64 23.70
  Q 65.73 89.07 86.97 154.86
  C 87.47 156.41 88.41 157.26 90.07 156.63
  Z"
/>
<path fill="#000000" d="
  M 450.19 94.67
  Q 450.38 125.32 450.22 156.50
  C 450.17 167.16 455.77 173.93 466.68 173.84
  Q 472.63 173.80 478.19 171.11
  Q 480.53 169.99 482.43 169.08
  A 2.00 2.00 0.0 0 1 485.18 170.22
  L 493.30 193.10
  A 0.74 0.72 60.5 0 1 493.09 193.90
  C 481.35 203.82 460.03 204.80 446.25 201.51
  C 425.55 196.57 416.57 179.31 416.54 159.30
  Q 416.50 126.92 416.54 94.64
  Q 416.54 93.59 415.49 93.59
  L 397.18 93.64
  A 1.56 1.56 0.0 0 1 395.62 92.08
  L 395.62 68.78
  A 1.46 1.46 0.0 0 1 397.08 67.32
  L 415.69 67.35
  A 0.85 0.85 0.0 0 0 416.54 66.50
  L 416.52 42.03
  A 1.15 1.14 85.3 0 1 417.47 40.90
  L 448.31 35.94
  A 1.69 1.68 -4.5 0 1 450.26 37.60
  L 450.25 66.33
  Q 450.25 67.35 451.26 67.35
  L 486.84 67.33
  A 1.53 1.53 0.0 0 1 488.37 68.86
  L 488.37 92.15
  A 1.47 1.47 0.0 0 1 486.90 93.62
  L 451.26 93.60
  Q 450.19 93.60 450.19 94.67
  Z"
/>
<path fill="#000000" d="
  M 292.32 142.63
  Q 292.48 150.59 295.88 157.78
  C 302.52 171.85 315.89 175.40 330.30 174.14
  C 342.10 173.12 349.45 168.29 355.30 158.01
  Q 356.26 156.33 358.60 157.73
  Q 369.63 164.35 379.85 170.93
  A 1.32 1.31 30.6 0 1 380.30 172.65
  Q 366.11 199.08 336.76 202.60
  C 304.90 206.42 271.49 195.01 261.36 161.46
  Q 254.92 140.11 259.03 117.72
  C 263.67 92.46 279.26 73.84 304.98 67.78
  C 319.40 64.38 337.43 65.06 351.15 70.72
  Q 375.47 80.76 380.38 107.50
  C 382.06 116.69 381.77 128.24 381.31 138.28
  A 3.32 3.31 -88.6 0 1 378.00 141.44
  L 293.49 141.44
  A 1.17 1.17 0.0 0 0 292.32 142.63
  Z
  M 309.97 94.47
  C 299.87 98.37 294.31 108.54 293.08 118.81
  A 0.92 0.92 0.0 0 0 293.99 119.84
  L 348.49 119.84
  A 0.79 0.79 0.0 0 0 349.28 119.07
  C 349.46 112.21 347.55 104.36 342.90 99.31
  C 335.00 90.70 320.18 90.52 309.97 94.47
  Z"
/>
<path fill="#f85e9f" d="
  M 831.90 197.93
  C 823.51 202.19 811.54 202.68 802.64 200.31
  C 794.23 198.07 788.36 193.11 785.96 184.85
  A 2.42 2.38 -82.6 0 0 784.93 183.49
  Q 783.04 182.31 781.98 184.26
  Q 778.25 191.15 772.24 195.67
  C 757.86 206.49 731.02 205.50 717.07 194.55
  Q 705.80 185.69 704.16 169.72
  C 703.28 161.12 703.50 153.41 707.26 146.22
  C 714.68 132.03 733.94 126.08 748.26 123.79
  C 757.78 122.26 766.44 120.92 774.28 117.68
  Q 780.78 115.01 781.46 108.01
  C 782.29 99.47 777.47 95.56 769.47 94.21
  C 752.85 91.41 735.53 98.32 724.08 110.13
  A 2.66 2.65 49.7 0 1 719.99 109.79
  L 707.40 91.58
  A 1.93 1.93 0.0 0 1 707.60 89.14
  Q 723.72 72.37 746.53 67.66
  Q 769.80 62.85 790.16 69.58
  C 806.91 75.11 814.41 90.70 814.45 107.81
  Q 814.52 137.15 814.49 166.49
  Q 814.49 170.62 817.79 172.67
  C 820.64 174.44 824.93 173.95 828.10 173.03
  A 1.68 1.67 -11.0 0 1 830.24 174.47
  L 832.45 196.92
  Q 832.52 197.62 831.90 197.93
  Z
  M 779.99 135.30
  C 771.92 140.41 762.11 141.63 752.74 143.50
  Q 735.26 146.98 737.57 164.73
  C 739.43 179.06 756.42 180.77 767.23 176.41
  C 781.33 170.72 783.35 153.91 782.46 140.07
  C 782.35 138.39 783.17 136.34 780.95 135.25
  A 1.00 0.99 -47.6 0 0 779.99 135.30
  Z"
/>
<path fill="#f85e9f" d="
  M 888.05 88.29
  Q 889.36 89.07 890.32 87.40
  Q 899.23 71.94 915.00 67.84
  C 930.09 63.91 950.53 64.95 962.59 76.26
  C 972.24 85.32 975.61 100.48 975.65 113.75
  Q 975.75 156.73 975.64 200.47
  Q 975.64 201.59 974.51 201.59
  L 942.40 201.62
  A 0.65 0.64 0.0 0 1 941.75 200.98
  Q 941.76 158.12 941.74 115.00
  Q 941.74 111.42 940.10 106.97
  C 937.83 100.82 933.77 96.73 927.40 95.39
  C 915.02 92.79 900.41 95.96 893.78 107.55
  C 889.20 115.58 888.58 124.22 888.55 134.71
  Q 888.45 167.03 888.52 200.09
  A 1.50 1.50 0.0 0 1 887.02 201.59
  L 855.94 201.63
  A 1.44 1.44 0.0 0 1 854.50 200.19
  L 854.50 68.67
  A 1.34 1.34 0.0 0 1 855.83 67.33
  L 885.75 67.32
  A 1.73 1.72 0.2 0 1 887.48 69.05
  L 887.44 87.22
  A 1.24 1.24 0.0 0 0 888.05 88.29
  Z"
/>
<path fill="#f85e9f" d="
  M 1246.62 67.13
  Q 1265.18 70.08 1276.84 82.24
  C 1291.51 97.56 1290.91 118.99 1290.06 138.29
  A 3.30 3.29 -88.7 0 1 1286.77 141.44
  L 1202.29 141.44
  A 1.43 1.42 -2.7 0 0 1200.87 143.00
  C 1203.00 165.34 1216.38 176.08 1238.55 174.21
  C 1250.05 173.24 1258.77 168.34 1264.01 158.02
  A 1.30 1.30 0.0 0 1 1264.67 157.42
  Q 1266.23 156.80 1267.61 157.66
  Q 1278.45 164.45 1288.51 170.92
  A 1.50 1.50 0.0 0 1 1289.00 172.93
  Q 1280.72 187.54 1267.76 195.37
  C 1249.19 206.59 1218.17 205.26 1199.16 195.88
  Q 1174.84 183.88 1168.54 155.70
  Q 1163.92 135.07 1168.73 113.57
  Q 1173.89 90.45 1191.99 77.45
  C 1207.65 66.20 1227.59 64.10 1246.62 67.13
  Z
  M 1204.49 108.61
  Q 1202.44 113.48 1201.80 118.62
  Q 1201.65 119.83 1202.86 119.83
  L 1256.78 119.84
  A 1.23 1.22 89.5 0 0 1258.00 118.59
  C 1257.81 108.30 1254.28 97.89 1243.75 94.04
  C 1229.17 88.70 1211.01 93.13 1204.49 108.61
  Z"
/>
<rect fill="#000000" x="192.25" y="67.33" width="34.10" height="134.28" rx="1.58"/>
<path fill="#f85e9f" d="
  M 596.25 111.76
  A 1.67 1.66 44.8 0 0 593.04 111.77
  L 569.01 200.47
  Q 568.71 201.59 567.54 201.60
  L 534.49 201.62
  A 1.51 1.50 83.1 0 1 533.03 200.47
  L 501.78 69.21
  Q 501.33 67.32 503.27 67.32
  L 531.16 67.33
  A 1.92 1.91 83.8 0 1 533.03 68.84
  L 552.25 157.25
  A 1.59 1.59 0.0 0 0 555.33 157.35
  L 580.28 68.74
  A 1.95 1.94 -82.1 0 1 582.15 67.32
  L 608.32 67.33
  A 2.18 2.18 0.0 0 1 610.41 68.90
  Q 623.00 112.14 635.70 156.00
  Q 636.03 157.18 636.41 157.72
  A 1.59 1.59 0.0 0 0 639.27 157.14
  L 657.80 68.51
  A 1.50 1.49 -84.0 0 1 659.26 67.32
  L 687.03 67.32
  Q 688.56 67.32 688.21 68.81
  L 657.12 200.82
  A 1.09 1.03 6.4 0 1 656.07 201.61
  L 622.28 201.62
  A 1.13 1.13 0.0 0 1 621.19 200.79
  L 596.25 111.76
  Z"
/>
<path fill="#f85e9f" d="
  M 1353.88 88.28
  L 1355.18 88.28
  A 0.82 0.82 0.0 0 0 1355.94 87.77
  C 1363.99 68.14 1384.70 63.66 1403.31 69.55
  A 1.88 1.88 0.0 0 1 1404.59 71.68
  Q 1402.15 85.15 1399.45 99.01
  C 1399.03 101.14 1397.06 100.88 1395.39 100.29
  C 1381.58 95.38 1364.72 98.64 1358.28 112.74
  Q 1353.78 122.61 1353.84 136.50
  Q 1353.99 168.61 1353.91 200.23
  A 1.39 1.38 -0.0 0 1 1352.52 201.61
  L 1321.14 201.62
  A 1.42 1.41 -90.0 0 1 1319.73 200.20
  L 1319.73 68.79
  A 1.48 1.47 -0.0 0 1 1321.21 67.32
  L 1350.87 67.33
  Q 1352.75 67.33 1352.75 69.20
  L 1352.74 87.13
  A 1.15 1.15 0.0 0 0 1353.88 88.28
  Z"
/>
<path fill="#ffffff" d="
  M 309.97 94.47
  C 320.18 90.52 335.00 90.70 342.90 99.31
  C 347.55 104.36 349.46 112.21 349.28 119.07
  A 0.79 0.79 0.0 0 1 348.49 119.84
  L 293.99 119.84
  A 0.92 0.92 0.0 0 1 293.08 118.81
  C 294.31 108.54 299.87 98.37 309.97 94.47
  Z"
/>
<path fill="#ffffff" d="
  M 1204.49 108.61
  C 1211.01 93.13 1229.17 88.70 1243.75 94.04
  C 1254.28 97.89 1257.81 108.30 1258.00 118.59
  A 1.23 1.22 89.5 0 1 1256.78 119.84
  L 1202.86 119.83
  Q 1201.65 119.83 1201.80 118.62
  Q 1202.44 113.48 1204.49 108.61
  Z"
/>
<path fill="#ffffff" d="
  M 1061.56 95.66
  C 1074.05 92.73 1087.25 95.58 1094.79 106.76
  C 1102.39 118.02 1102.52 137.15 1099.70 149.86
  C 1095.75 167.74 1082.34 177.03 1063.44 173.81
  C 1050.63 171.64 1043.51 162.03 1041.11 149.87
  Q 1040.18 145.16 1040.06 134.58
  C 1039.88 118.64 1042.90 100.04 1061.56 95.66
  Z"
/>
<path fill="#ffffff" d="
  M 752.74 143.50
  C 762.11 141.63 771.92 140.41 779.99 135.30
  A 1.00 0.99 -47.6 0 1 780.95 135.25
  C 783.17 136.34 782.35 138.39 782.46 140.07
  C 783.35 153.91 781.33 170.72 767.23 176.41
  C 756.42 180.77 739.43 179.06 737.57 164.73
  Q 735.26 146.98 752.74 143.50
  Z"
/>
</svg>
